<svg xmlns="http://www.w3.org/2000/svg" width="1440" viewBox="0 0 1440 337.5" height="337.5" version="1.0"><path fill="#FFD700" d="M 114.832031 18.667969 L 132.570312 54.582031 C 132.839844 55.207031 133.46875 55.65625 134.191406 55.746094 L 173.898438 61.492188 C 175.609375 61.761719 176.328125 63.917969 175.066406 65.085938 L 146.34375 93.003906 C 145.804688 93.453125 145.625 94.171875 145.714844 94.890625 L 152.46875 134.394531 C 152.738281 136.097656 150.9375 137.445312 149.40625 136.636719 L 113.839844 117.964844 C 113.210938 117.605469 112.488281 117.605469 111.859375 117.964844 L 76.292969 136.636719 C 74.761719 137.445312 72.960938 136.097656 73.234375 134.394531 L 79.984375 94.890625 C 80.074219 94.171875 79.894531 93.542969 79.355469 93.003906 L 50.722656 65.085938 C 49.460938 63.828125 50.183594 61.761719 51.894531 61.492188 L 91.601562 55.746094 C 92.320312 55.65625 92.863281 55.207031 93.222656 54.582031 L 110.960938 18.667969 C 111.769531 17.144531 114.019531 17.144531 114.832031 18.667969 Z M 114.832031 18.667969"/><g fill="#C00"><g><g><path d="M 14.140625 0 L 14.140625 -162.65625 L 48.53125 -162.65625 L 48.53125 -28.359375 L 118.265625 -28.359375 L 118.265625 0 Z M 14.140625 0" transform="translate(13.871 266.23)"/></g></g></g><g fill="#C00"><g><g><path d="M 163.609375 -81.328125 C 163.609375 -63.585938 160.257812 -48.492188 153.5625 -36.046875 C 146.863281 -23.609375 137.769531 -14.117188 126.28125 -7.578125 C 114.789062 -1.046875 101.84375 2.21875 87.4375 2.21875 C 72.988281 2.21875 60.019531 -1.0625 48.53125 -7.625 C 37.039062 -14.1875 27.957031 -23.703125 21.28125 -36.171875 C 14.613281 -48.640625 11.28125 -63.691406 11.28125 -81.328125 C 11.28125 -99.066406 14.613281 -114.15625 21.28125 -126.59375 C 27.957031 -139.039062 37.039062 -148.535156 48.53125 -155.078125 C 60.019531 -161.617188 72.988281 -164.890625 87.4375 -164.890625 C 101.84375 -164.890625 114.789062 -161.617188 126.28125 -155.078125 C 137.769531 -148.535156 146.863281 -139.039062 153.5625 -126.59375 C 160.257812 -114.15625 163.609375 -99.066406 163.609375 -81.328125 Z M 128.75 -81.328125 C 128.75 -98.585938 124.988281 -111.757812 117.46875 -120.84375 C 109.945312 -129.925781 99.9375 -134.46875 87.4375 -134.46875 C 74.945312 -134.46875 64.941406 -129.925781 57.421875 -120.84375 C 49.898438 -111.757812 46.140625 -98.585938 46.140625 -81.328125 C 46.140625 -64.117188 49.898438 -50.960938 57.421875 -41.859375 C 64.941406 -32.753906 74.945312 -28.203125 87.4375 -28.203125 C 99.9375 -28.203125 109.945312 -32.753906 117.46875 -41.859375 C 124.988281 -50.960938 128.75 -64.117188 128.75 -81.328125 Z M 128.75 -81.328125" transform="translate(140.794 266.23)"/></g></g></g><g fill="#C00"><g><g><path d="M 122 -110.078125 C 119.820312 -117.703125 115.804688 -123.671875 109.953125 -127.984375 C 104.109375 -132.304688 96.765625 -134.46875 87.921875 -134.46875 C 75.472656 -134.46875 65.394531 -129.875 57.6875 -120.6875 C 49.988281 -111.5 46.140625 -98.429688 46.140625 -81.484375 C 46.140625 -64.492188 49.925781 -51.363281 57.5 -42.09375 C 65.070312 -32.832031 75.316406 -28.203125 88.234375 -28.203125 C 99.671875 -28.203125 108.660156 -31.175781 115.203125 -37.125 C 121.742188 -43.082031 125.117188 -51.09375 125.328125 -61.15625 L 90.390625 -61.15625 L 90.390625 -87.046875 L 158.453125 -87.046875 L 158.453125 -66.5625 C 158.453125 -52.3125 155.429688 -40.035156 149.390625 -29.734375 C 143.359375 -19.441406 135.0625 -11.539062 124.5 -6.03125 C 113.9375 -0.53125 101.796875 2.21875 88.078125 2.21875 C 72.828125 2.21875 59.429688 -1.15625 47.890625 -7.90625 C 36.347656 -14.65625 27.359375 -24.265625 20.921875 -36.734375 C 14.492188 -49.203125 11.28125 -64.015625 11.28125 -81.171875 C 11.28125 -98.753906 14.640625 -113.789062 21.359375 -126.28125 C 28.085938 -138.78125 37.195312 -148.335938 48.6875 -154.953125 C 60.175781 -161.578125 73.066406 -164.890625 87.359375 -164.890625 C 99.648438 -164.890625 110.769531 -162.554688 120.71875 -157.890625 C 130.675781 -153.234375 138.832031 -146.785156 145.1875 -138.546875 C 151.539062 -130.316406 155.457031 -120.828125 156.9375 -110.078125 Z M 122 -110.078125" transform="translate(315.69 266.23)"/></g></g></g><g fill="#C00"><g><g><path d="M 163.609375 -81.328125 C 163.609375 -63.585938 160.257812 -48.492188 153.5625 -36.046875 C 146.863281 -23.609375 137.769531 -14.117188 126.28125 -7.578125 C 114.789062 -1.046875 101.84375 2.21875 87.4375 2.21875 C 72.988281 2.21875 60.019531 -1.0625 48.53125 -7.625 C 37.039062 -14.1875 27.957031 -23.703125 21.28125 -36.171875 C 14.613281 -48.640625 11.28125 -63.691406 11.28125 -81.328125 C 11.28125 -99.066406 14.613281 -114.15625 21.28125 -126.59375 C 27.957031 -139.039062 37.039062 -148.535156 48.53125 -155.078125 C 60.019531 -161.617188 72.988281 -164.890625 87.4375 -164.890625 C 101.84375 -164.890625 114.789062 -161.617188 126.28125 -155.078125 C 137.769531 -148.535156 146.863281 -139.039062 153.5625 -126.59375 C 160.257812 -114.15625 163.609375 -99.066406 163.609375 -81.328125 Z M 128.75 -81.328125 C 128.75 -98.585938 124.988281 -111.757812 117.46875 -120.84375 C 109.945312 -129.925781 99.9375 -134.46875 87.4375 -134.46875 C 74.945312 -134.46875 64.941406 -129.925781 57.421875 -120.84375 C 49.898438 -111.757812 46.140625 -98.585938 46.140625 -81.328125 C 46.140625 -64.117188 49.898438 -50.960938 57.421875 -41.859375 C 64.941406 -32.753906 74.945312 -28.203125 87.4375 -28.203125 C 99.9375 -28.203125 109.945312 -32.753906 117.46875 -41.859375 C 124.988281 -50.960938 128.75 -64.117188 128.75 -81.328125 Z M 128.75 -81.328125" transform="translate(485.82 266.23)"/></g></g></g><g><g><g><path d="M 39.390625 -162.65625 L 39.390625 0 L 19.703125 0 L 19.703125 -162.65625 Z M 39.390625 -162.65625" transform="translate(712.574 266.23)"/></g></g></g><g><g><g><path d="M 19.703125 0 L 19.703125 -162.65625 L 74.65625 -162.65625 C 87.414062 -162.65625 97.859375 -160.363281 105.984375 -155.78125 C 114.117188 -151.207031 120.144531 -145.023438 124.0625 -137.234375 C 127.976562 -129.453125 129.9375 -120.769531 129.9375 -111.1875 C 129.9375 -101.601562 127.988281 -92.894531 124.09375 -85.0625 C 120.207031 -77.226562 114.210938 -70.992188 106.109375 -66.359375 C 98.003906 -61.722656 87.625 -59.40625 74.96875 -59.40625 L 39.390625 -59.40625 L 39.390625 0 Z M 39.390625 -76.875 L 74.34375 -76.875 C 87.414062 -76.875 96.71875 -80.15625 102.25 -86.71875 C 107.789062 -93.289062 110.5625 -101.445312 110.5625 -111.1875 C 110.5625 -120.988281 107.78125 -129.101562 102.21875 -135.53125 C 96.65625 -141.96875 87.253906 -145.1875 74.015625 -145.1875 L 39.390625 -145.1875 Z M 39.390625 -76.875" transform="translate(771.667 266.23)"/></g></g></g><g><g><g><path d="M 108.65625 -122 C 107.695312 -130.039062 103.828125 -136.285156 97.046875 -140.734375 C 90.273438 -145.179688 81.960938 -147.40625 72.109375 -147.40625 C 61.316406 -147.40625 52.632812 -144.847656 46.0625 -139.734375 C 39.5 -134.628906 36.21875 -128.1875 36.21875 -120.40625 C 36.21875 -114.582031 38.003906 -109.882812 41.578125 -106.3125 C 45.148438 -102.738281 49.382812 -99.957031 54.28125 -97.96875 C 59.175781 -95.976562 63.640625 -94.457031 67.671875 -93.40625 L 84.1875 -88.953125 C 88.425781 -87.835938 93.148438 -86.300781 98.359375 -84.34375 C 103.578125 -82.382812 108.582031 -79.722656 113.375 -76.359375 C 118.164062 -73.003906 122.125 -68.703125 125.25 -63.453125 C 128.375 -58.210938 129.9375 -51.78125 129.9375 -44.15625 C 129.9375 -35.363281 127.644531 -27.421875 123.0625 -20.328125 C 118.488281 -13.234375 111.816406 -7.59375 103.046875 -3.40625 C 94.285156 0.769531 83.65625 2.859375 71.15625 2.859375 C 53.6875 2.859375 39.816406 -1.269531 29.546875 -9.53125 C 19.273438 -17.789062 13.660156 -28.59375 12.703125 -41.9375 L 33.046875 -41.9375 C 33.566406 -35.789062 35.640625 -30.71875 39.265625 -26.71875 C 42.898438 -22.726562 47.507812 -19.765625 53.09375 -17.828125 C 58.675781 -15.898438 64.695312 -14.9375 71.15625 -14.9375 C 78.675781 -14.9375 85.425781 -16.164062 91.40625 -18.625 C 97.394531 -21.082031 102.132812 -24.519531 105.625 -28.9375 C 109.125 -33.363281 110.875 -38.546875 110.875 -44.484375 C 110.875 -49.878906 109.363281 -54.269531 106.34375 -57.65625 C 103.332031 -61.050781 99.363281 -63.804688 94.4375 -65.921875 C 89.507812 -68.035156 84.1875 -69.890625 78.46875 -71.484375 L 58.453125 -77.203125 C 45.742188 -80.859375 35.679688 -86.070312 28.265625 -92.84375 C 20.859375 -99.625 17.15625 -108.492188 17.15625 -119.453125 C 17.15625 -128.554688 19.628906 -136.507812 24.578125 -143.3125 C 29.523438 -150.125 36.195312 -155.421875 44.59375 -159.203125 C 52.988281 -162.992188 62.375 -164.890625 72.75 -164.890625 C 83.238281 -164.890625 92.554688 -163.019531 100.703125 -159.28125 C 108.859375 -155.550781 115.332031 -150.457031 120.125 -144 C 124.914062 -137.539062 127.445312 -130.207031 127.71875 -122 Z M 108.65625 -122" transform="translate(913.68 266.23)"/></g></g></g><g><g><g><path d="M 126.4375 -162.65625 L 146.140625 -162.65625 L 146.140625 -54.96875 C 146.140625 -42.78125 143.253906 -32.367188 137.484375 -23.734375 C 131.710938 -15.109375 124.035156 -8.519531 114.453125 -3.96875 C 104.867188 0.582031 94.359375 2.859375 82.921875 2.859375 C 71.484375 2.859375 60.972656 0.582031 51.390625 -3.96875 C 41.804688 -8.519531 34.128906 -15.109375 28.359375 -23.734375 C 22.585938 -32.367188 19.703125 -42.78125 19.703125 -54.96875 L 19.703125 -162.65625 L 39.390625 -162.65625 L 39.390625 -54.96875 C 39.390625 -46.488281 41.398438 -39.320312 45.421875 -33.46875 C 49.453125 -27.625 54.773438 -23.175781 61.390625 -20.125 C 68.015625 -17.082031 75.191406 -15.5625 82.921875 -15.5625 C 90.648438 -15.5625 97.820312 -17.082031 104.4375 -20.125 C 111.0625 -23.175781 116.382812 -27.625 120.40625 -33.46875 C 124.425781 -39.320312 126.4375 -46.488281 126.4375 -54.96875 Z M 126.4375 -162.65625" transform="translate(1056.33 266.23)"/></g></g></g><g><g><g><path d="M 19.703125 -162.65625 L 43.203125 -162.65625 L 98.484375 -27.640625 L 100.390625 -27.640625 L 155.671875 -162.65625 L 179.171875 -162.65625 L 179.171875 0 L 160.75 0 L 160.75 -123.578125 L 159.171875 -123.578125 L 108.328125 0 L 90.546875 0 L 39.71875 -123.578125 L 38.125 -123.578125 L 38.125 0 L 19.703125 0 Z M 19.703125 -162.65625" transform="translate(1222.17 266.23)"/></g></g></g></svg>